# xmcd
# Track frame offsets:
# 150
# 22684
# 49494
#
# Disc length: 909 seconds
# Revision: 0
# Processed by: cddbd v1.4PL0 Copyright (c) Steve Scherf et al.
# Submitted via: VisiTrax 2.9.3.171 - For more info visit www.synapsa.com
#
DISCID=1b038b03
DTITLE=Honeyz - End of the Line
DYEAR=1998
DGENRE=Blues
TTITLE0=End of the Line (rude boys mix)
TTITLE1=End of the Line (ignorants club mix)
TTITLE2=End of the Line (rude boy mix edit)
EXTD=
EXTT0=
EXTT1=
EXTT2=
PLAYORDER=
